<?xml version="1.0" encoding="utf-8"?>
<!-- Svg Vector Icons : http://www.onlinewebfonts.com/icon -->
<!DOCTYPE svg PUBLIC "-//W3C//DTD SVG 1.1//EN" "http://www.w3.org/Graphics/SVG/1.1/DTD/svg11.dtd">
<svg version="1.1" xmlns="http://www.w3.org/2000/svg" xmlns:xlink="http://www.w3.org/1999/xlink" x="0px" y="0px" viewBox="0 0 256 256" enable-background="new 0 0 256 256" xml:space="preserve">
<metadata> Svg Vector Icons : http://www.onlinewebfonts.com/icon </metadata>
<g><g><path fill="#000000" d="M246,197.2l0-23.9c0,0-15.8-3.1-16.1-4.2c-0.3-1.2-0.6-2.3-1-3.4c1.9-3.4,10.8-11,10.8-11l-17.8-23.7c0,0-11.6,9.5-14.4,10.9c-1.3-0.5-2.7-1-4.2-1.4c-1.6-0.4-5.9-15.6-5.9-15.6l-24-0.2c0,0-2.6,14.7-6.5,15.7c-1.3,0.4-2.6,0.9-3.9,1.5c-2.9-1.4-14.4-11.1-14.4-11.1l-17.8,24.1c0,0,8.9,9,9.5,12c-0.4,0.9-0.7,1.9-1.1,2.9c-3.8,1.3-14.7,3.5-14.7,3.5l0,23.9c0,0,12.7,2.6,15.1,4.8c0.5,1.4,1.1,2.7,1.7,4c-2.9,3.7-10.7,9.8-10.7,9.8l18.4,23.9c0,0,14.4-9.3,16.8-9.9c1.2,0.5,2.4,1,3.6,1.4c2.2,0.8,3.7,14.7,3.7,14.7l24,0c0,0,0.8-13.7,2.6-14.2c1.7-0.6,3.4-1.2,5.1-1.9c2,0.8,11.5,10.2,11.5,10.2l23.7-24.1c0,0-8.8-6.1-11.2-9.3c0.7-1.3,1.3-2.7,1.8-4.2C231.3,200.2,246,197.2,246,197.2L246,197.2L246,197.2z M185,215.3c-16.7,0-30.2-13.5-30.2-30.2s13.5-30.2,30.2-30.2s30.2,13.5,30.2,30.2S201.7,215.3,185,215.3L185,215.3L185,215.3z M108.1,123.4c27.5,0,55.5-27,55.5-55.7c0-28.6-26.6-57.7-54.1-57.7c-27.5,0-54.8,29.8-54.8,58.4C54.6,97.1,80.6,123.4,108.1,123.4L108.1,123.4L108.1,123.4z M120.1,135.3h-55c-13.8,0-34.4,7.2-41.3,28.6c-6.9,21.5-6.9,21.5-13.8,42.9c-3.4,10.8,46.9,16.3,97,16.1c16.6,0,5.3-13.7,5.3-31C112.5,152.5,146.2,135.3,120.1,135.3L120.1,135.3L120.1,135.3z"/></g></g>
</svg>